<?xml version="1.0" encoding="UTF-8" standalone="no"?>
<!DOCTYPE svg PUBLIC "-//W3C//DTD SVG 1.1//EN" "http://www.w3.org/Graphics/SVG/1.1/DTD/svg11.dtd">
<svg version="1.1" xmlns="http://www.w3.org/2000/svg" xmlns:xlink="http://www.w3.org/1999/xlink" preserveAspectRatio="xMidYMid meet" viewBox="0 0 640 640" width="640" height="640"><defs><path d="M10.6 254.5C10.6 389.6 120.1 499.1 255.2 499.1C390.3 499.1 499.8 389.6 499.8 254.5C499.8 119.4 390.3 9.9 255.2 9.9C120.1 9.9 10.6 119.4 10.6 254.5ZM62.2 254.6C62.2 148.2 148.8 61.6 255.2 61.6C361.7 61.6 448.3 148.2 448.3 254.6C448.2 361 361.6 447.6 255.2 447.6C148.8 447.6 62.2 361 62.2 254.6Z" id="auwHRr8mt"></path><path d="M229.8 194.8C229.8 183.7 238.2 172.6 263.9 172.6C278.5 172.6 290.3 175 299.8 177.9C305.4 179.6 311.5 178.9 316.6 176.1C321.7 173.2 325.4 168.4 326.9 162.7C326.94 162.56 327.26 161.44 327.3 161.3C330.4 149.1 323.1 136.7 311 133.5C301.1 130.9 289.3 129 275 128.3C275 126.76 275 114.44 275 112.9C275 102.2 266.3 93.5 255.6 93.5C244.9 93.5 236.2 102.2 236.2 112.9C236.2 114.71 236.2 129.19 236.2 131C193.9 139.4 169.3 166.7 169.3 201.5C169.3 239.9 198.2 259.6 240.5 273.9C269.8 283.8 282.4 293.3 282.4 308.4C282.4 324.2 267 333 244.5 333C228.4 333 213.3 329.8 200.1 325.1C194.5 323.1 188.3 323.6 183.1 326.3C177.9 329.1 174 334 172.5 339.7C172.42 339.99 171.78 342.31 171.7 342.6C168.6 354.5 175.4 366.7 187.1 370.5C200.8 374.9 217.3 378.1 234.1 378.8C234.1 380.63 234.1 395.27 234.1 397.1C234.1 407.8 242.8 416.4 253.4 416.4C264.1 416.4 272.8 407.7 272.8 397C272.8 394.9 272.8 378.1 272.8 376C318.4 368.1 343.3 338 343.3 302.8C343.5 267.2 324.5 245.5 277.4 228.8C243.7 216.1 229.8 207.8 229.8 194.8Z" id="c4PVRuC3L"></path><path d="M429.61 104.56C429.61 104.56 429.61 104.56 429.61 104.56C233.73 300.44 124.9 409.26 103.14 431.03C103.14 431.03 103.14 431.03 103.14 431.03C88.46 416.35 80.31 408.19 78.67 406.56C78.67 406.56 78.67 406.56 78.67 406.56C274.56 210.68 383.38 101.86 405.14 80.09C405.14 80.09 405.14 80.09 405.14 80.09C419.82 94.77 427.98 102.93 429.61 104.56Z" id="a4ybeOPWq"></path></defs><g><g><g><use xlink:href="#auwHRr8mt" opacity="1" fill="#e60012" fill-opacity="1"></use><g><use xlink:href="#auwHRr8mt" opacity="1" fill-opacity="0" stroke="#000000" stroke-width="1" stroke-opacity="0"></use></g></g><g><use xlink:href="#c4PVRuC3L" opacity="1" fill="#e60012" fill-opacity="1"></use><g><use xlink:href="#c4PVRuC3L" opacity="1" fill-opacity="0" stroke="#000000" stroke-width="1" stroke-opacity="0"></use></g></g><g><use xlink:href="#a4ybeOPWq" opacity="1" fill="#e60012" fill-opacity="1"></use><g><use xlink:href="#a4ybeOPWq" opacity="1" fill-opacity="0" stroke="#000000" stroke-width="1" stroke-opacity="0"></use></g></g></g></g></svg>