<?xml version="1.0" encoding="UTF-8" standalone="no"?>
<!DOCTYPE svg PUBLIC "-//W3C//DTD SVG 1.1//EN" "http://www.w3.org/Graphics/SVG/1.1/DTD/svg11.dtd">
<svg version="1.1" xmlns="http://www.w3.org/2000/svg" xmlns:xlink="http://www.w3.org/1999/xlink" preserveAspectRatio="xMidYMid meet" viewBox="0 0 640 640" width="640" height="640"><defs><path d="M43 342.01C43 432.25 116.41 505.65 206.64 505.65C296.88 505.65 370.28 432.25 370.28 342.01C370.28 251.78 296.87 178.37 206.64 178.37C116.41 178.37 43 251.78 43 342.01ZM252.29 372.66C252.29 392.58 239.47 409.55 221.64 415.77C221.64 416.72 221.64 424.33 221.64 425.28C221.64 433.56 214.93 440.28 206.64 440.28C198.36 440.28 191.64 433.56 191.64 425.28C191.64 424.81 191.64 422.49 191.64 418.32C182.25 418.32 177.03 418.32 175.99 418.32C167.71 418.32 160.99 411.6 160.99 403.32C160.99 395.03 167.71 388.32 175.99 388.32C179.06 388.32 203.58 388.32 206.64 388.32C215.27 388.32 222.29 381.29 222.29 372.66C222.29 364.03 215.27 357.01 206.64 357.01C181.47 357.01 160.99 336.53 160.99 311.36C160.99 291.44 173.82 274.48 191.64 268.26C191.64 267.3 191.64 259.7 191.64 258.75C191.64 250.47 198.36 243.75 206.64 243.75C214.93 243.75 221.64 250.47 221.64 258.75C221.64 259.21 221.64 261.53 221.64 265.71C231.03 265.71 236.25 265.71 237.29 265.71C245.58 265.71 252.29 272.43 252.29 280.71C252.29 289 245.58 295.71 237.29 295.71C234.23 295.71 209.71 295.71 206.64 295.71C198.01 295.71 190.99 302.73 190.99 311.36C190.99 319.99 198.01 327.01 206.64 327.01C231.81 327.01 252.29 347.49 252.29 372.66Z" id="aXmyMBUfL"></path><path d="M385.01 118.92C360.5 118.92 340.56 98.97 340.56 74.46C340.56 33.4 307.15 0 266.1 0C225.04 0 191.64 33.4 191.64 74.46C191.64 77.42 191.64 92.24 191.64 118.92C170.97 118.92 159.49 118.92 157.2 118.92C150.53 118.92 144.66 123.32 142.8 129.72C141.83 133.04 134.11 159.56 133.14 162.88C155.82 153.54 180.64 148.37 206.64 148.37C232.65 148.37 257.46 153.54 280.14 162.88C279.17 159.56 271.45 133.04 270.49 129.72C268.62 123.32 262.75 118.92 256.08 118.92C253.79 118.92 242.31 118.92 221.64 118.92C221.64 92.24 221.64 77.42 221.64 74.46C221.64 49.95 241.58 30 266.1 30C290.61 30 310.55 49.95 310.55 74.46C310.55 115.52 343.96 148.92 385.01 148.92C390.96 148.92 438.52 148.92 444.47 148.92C452.75 148.92 459.47 142.2 459.47 133.92C459.47 125.63 452.75 118.92 444.47 118.92C444.47 118.92 390.96 118.92 385.01 118.92Z" id="c13OmoGEN9"></path><path d="M510.27 118.92C501.99 118.92 495.27 125.63 495.27 133.92C495.27 142.2 501.99 148.92 510.27 148.92C513.24 148.92 537.03 148.92 540 148.92C548.28 148.92 555 142.2 555 133.92C555 125.63 548.28 118.92 540 118.92C534.05 118.92 513.24 118.92 510.27 118.92Z" id="b12QihMD"></path><path d="M501.6 97.99C503.71 95.89 520.52 79.07 522.63 76.97C528.48 71.11 528.48 61.62 522.63 55.76C516.77 49.9 507.27 49.9 501.41 55.76C499.31 57.86 482.49 74.68 480.39 76.78C474.53 82.64 474.53 92.13 480.39 97.99C483.32 100.92 487.16 102.39 491 102.39C494.84 102.39 498.68 100.92 501.6 97.99Z" id="aQsQKddmH"></path><path d="M429.47 38.38C429.47 41.36 429.47 65.14 429.47 68.11C429.47 76.4 436.18 83.11 444.47 83.11C452.75 83.11 459.47 76.4 459.47 68.11C459.47 65.14 459.47 41.36 459.47 38.38C459.47 30.1 452.75 23.38 444.47 23.38C436.18 23.38 429.47 30.1 429.47 38.38Z" id="b1H6lDlFd6"></path><path d="M387.33 97.99C390.26 100.92 394.1 102.39 397.94 102.39C401.78 102.39 405.62 100.92 408.54 97.99C414.4 92.14 414.4 82.64 408.54 76.78C406.44 74.68 389.62 57.86 387.52 55.76C381.67 49.9 372.17 49.9 366.31 55.76C360.45 61.62 360.45 71.11 366.31 76.97C370.51 81.18 383.13 93.79 387.33 97.99Z" id="aNaReUIl0"></path><path d="M366.31 190.86C360.45 196.72 360.45 206.22 366.31 212.07C369.24 215 373.08 216.47 376.92 216.47C380.75 216.47 384.59 215 387.52 212.07C389.62 209.97 406.44 193.15 408.54 191.05C414.4 185.2 414.4 175.7 408.54 169.84C402.69 163.98 393.19 163.98 387.33 169.84C383.13 174.04 368.41 188.76 366.31 190.86Z" id="bs6M7xdQ"></path><path d="M429.47 199.72C429.47 202.69 429.47 226.48 429.47 229.45C429.47 237.73 436.18 244.45 444.47 244.45C452.75 244.45 459.47 237.73 459.47 229.45C459.47 226.48 459.47 202.69 459.47 199.72C459.47 191.43 452.75 184.72 444.47 184.72C436.18 184.72 429.47 191.44 429.47 199.72Z" id="f1vnRJwBR3"></path><path d="M501.6 169.84C495.75 163.98 486.25 163.98 480.39 169.84C474.53 175.7 474.53 185.19 480.39 191.05C482.49 193.15 499.31 209.97 501.41 212.07C504.34 215 508.18 216.47 512.02 216.47C515.86 216.47 519.7 215 522.62 212.07C528.48 206.22 528.48 196.72 522.62 190.86C518.42 186.66 505.81 174.04 501.6 169.84Z" id="e1E7y7OSYX"></path></defs><g><g><g><use xlink:href="#aXmyMBUfL" opacity="1" fill="#e60012" fill-opacity="1"></use><g><use xlink:href="#aXmyMBUfL" opacity="1" fill-opacity="0" stroke="#000000" stroke-width="1" stroke-opacity="0"></use></g></g><g><use xlink:href="#c13OmoGEN9" opacity="1" fill="#e60012" fill-opacity="1"></use><g><use xlink:href="#c13OmoGEN9" opacity="1" fill-opacity="0" stroke="#000000" stroke-width="1" stroke-opacity="0"></use></g></g><g><use xlink:href="#b12QihMD" opacity="1" fill="#e60012" fill-opacity="1"></use><g><use xlink:href="#b12QihMD" opacity="1" fill-opacity="0" stroke="#000000" stroke-width="1" stroke-opacity="0"></use></g></g><g><use xlink:href="#aQsQKddmH" opacity="1" fill="#e60012" fill-opacity="1"></use><g><use xlink:href="#aQsQKddmH" opacity="1" fill-opacity="0" stroke="#000000" stroke-width="1" stroke-opacity="0"></use></g></g><g><use xlink:href="#b1H6lDlFd6" opacity="1" fill="#e60012" fill-opacity="1"></use><g><use xlink:href="#b1H6lDlFd6" opacity="1" fill-opacity="0" stroke="#000000" stroke-width="1" stroke-opacity="0"></use></g></g><g><use xlink:href="#aNaReUIl0" opacity="1" fill="#e60012" fill-opacity="1"></use><g><use xlink:href="#aNaReUIl0" opacity="1" fill-opacity="0" stroke="#000000" stroke-width="1" stroke-opacity="0"></use></g></g><g><use xlink:href="#bs6M7xdQ" opacity="1" fill="#e60012" fill-opacity="1"></use><g><use xlink:href="#bs6M7xdQ" opacity="1" fill-opacity="0" stroke="#000000" stroke-width="1" stroke-opacity="0"></use></g></g><g><use xlink:href="#f1vnRJwBR3" opacity="1" fill="#e60012" fill-opacity="1"></use><g><use xlink:href="#f1vnRJwBR3" opacity="1" fill-opacity="0" stroke="#000000" stroke-width="1" stroke-opacity="0"></use></g></g><g><use xlink:href="#e1E7y7OSYX" opacity="1" fill="#e60012" fill-opacity="1"></use><g><use xlink:href="#e1E7y7OSYX" opacity="1" fill-opacity="0" stroke="#000000" stroke-width="1" stroke-opacity="0"></use></g></g></g></g></svg>